<svg width="24" height="17" viewBox="0 0 24 17" fill="none" xmlns="http://www.w3.org/2000/svg">
<path d="M21.4769 16.7061C20.8122 16.7061 20.2823 16.5714 19.8871 16.3019C19.4919 16.0324 19.2943 15.5834 19.2943 14.9546C19.2943 14.3259 19.4829 13.8768 19.8602 13.6074C20.2554 13.3379 20.7943 13.2032 21.4769 13.2032C22.1595 13.2032 22.6894 13.3379 23.0667 13.6074C23.4619 13.8768 23.6595 14.3259 23.6595 14.9546C23.6595 15.5834 23.4619 16.0324 23.0667 16.3019C22.6894 16.5714 22.1595 16.7061 21.4769 16.7061Z" fill="#EB3E1B"/>
<path d="M8.99975 16.7061C7.04172 16.7061 5.30824 16.6163 3.79929 16.4367C2.29035 16.257 1.20356 16.0774 0.538907 15.8978V15.0894L0 11.6673C0.341308 11.9548 0.90716 12.2601 1.69756 12.5835C2.48795 12.9068 3.5029 13.1853 4.74238 13.4188C5.98187 13.6343 7.41895 13.7421 9.05364 13.7421C10.0596 13.7421 10.832 13.6793 11.3709 13.5535C11.9098 13.4098 12.2781 13.2122 12.4757 12.9607C12.6733 12.7092 12.7721 12.4128 12.7721 12.0715C12.7721 11.6404 12.6284 11.3081 12.341 11.0745C12.0536 10.8231 11.5326 10.6165 10.7781 10.4548C10.0416 10.2931 8.99077 10.1225 7.62554 9.94284C5.99085 9.72727 4.62562 9.43087 3.52984 9.05364C2.43406 8.6764 1.61672 8.14648 1.07781 7.46386C0.538907 6.76328 0.269453 5.83816 0.269453 4.68849C0.269453 3.75439 0.511962 2.93704 0.996978 2.23646C1.48199 1.53588 2.26341 0.987996 3.34122 0.592798C4.41904 0.197599 5.84714 0 7.62554 0C9.49375 0 11.0925 0.0898178 12.4218 0.269453C13.7511 0.449089 14.6673 0.628724 15.1702 0.80836V1.61672L15.9786 4.58071C15.5295 4.34718 14.8828 4.10468 14.0385 3.85319C13.1942 3.6017 12.2152 3.39511 11.1015 3.23344C9.98775 3.05381 8.78419 2.96399 7.49081 2.96399C6.68245 2.96399 6.05372 3.03584 5.60463 3.17955C5.15554 3.3053 4.8322 3.49391 4.6346 3.7454C4.45497 3.97893 4.36515 4.27533 4.36515 4.6346C4.36515 5.06573 4.52682 5.41602 4.85016 5.68547C5.19147 5.93696 5.73936 6.14354 6.49383 6.30521C7.2483 6.46688 8.26324 6.61958 9.53866 6.76328C11.4967 6.97885 13.0056 7.30219 14.0655 7.73332C15.1253 8.16444 15.8529 8.72131 16.248 9.40393C16.6612 10.0686 16.8678 10.8769 16.8678 11.829C16.8678 12.6553 16.7151 13.3829 16.4097 14.0116C16.1043 14.6223 15.6283 15.1253 14.9816 15.5205C14.3529 15.9157 13.5356 16.2121 12.5296 16.4097C11.5416 16.6073 10.365 16.7061 8.99975 16.7061Z" fill="#040309"/>
</svg>
